<svg width="24" height="25" viewBox="0 0 24 25" fill="none" xmlns="http://www.w3.org/2000/svg">
<path opacity="0.3" fill-rule="evenodd" clip-rule="evenodd" d="M10.6319 1.64199C10.9859 1.28847 11.4595 1.08045 11.9593 1.05897C12.4591 1.0375 12.9489 1.20413 13.3319 1.52599L13.4599 1.64299L15.3599 3.54199H18.0459C18.5503 3.54209 19.036 3.73277 19.4058 4.07583C19.7756 4.4189 20.002 4.88901 20.0399 5.39199L20.0459 5.54199V8.22799L21.9459 10.128C22.2997 10.482 22.5079 10.9559 22.5293 11.4559C22.5508 11.956 22.384 12.4459 22.0619 12.829L21.9449 12.956L20.0449 14.856V17.542C20.045 18.0466 19.8545 18.5326 19.5114 18.9025C19.1683 19.2725 18.698 19.4992 18.1949 19.537L18.0459 19.542H15.3609L13.4609 21.442C13.1068 21.7958 12.633 22.004 12.1329 22.0255C11.6329 22.0469 11.1429 21.8801 10.7599 21.558L10.6329 21.442L8.73287 19.542H6.04587C5.54129 19.5422 5.0553 19.3516 4.68532 19.0085C4.31534 18.6654 4.08871 18.1951 4.05087 17.692L4.04587 17.542V14.856L2.14587 12.956C1.79206 12.602 1.58387 12.1281 1.56239 11.6281C1.54091 11.128 1.70772 10.6381 2.02987 10.255L2.14587 10.128L4.04587 8.22799V5.54199C4.04596 5.03759 4.23664 4.55185 4.57971 4.18208C4.92277 3.81231 5.39289 3.58582 5.89587 3.54799L6.04587 3.54199H8.73187L10.6319 1.64199Z" fill="#00AA39"/>
<path fill-rule="evenodd" clip-rule="evenodd" d="M15.1255 8.52497L10.8815 12.769L9.11345 11.001C8.92581 10.8135 8.67137 10.7082 8.4061 10.7083C8.14083 10.7084 7.88646 10.8138 7.69895 11.0015C7.51144 11.1891 7.40616 11.4436 7.40625 11.7088C7.40634 11.9741 7.51181 12.2285 7.69945 12.416L10.1035 14.82C10.2056 14.9222 10.3269 15.0032 10.4604 15.0586C10.5939 15.1139 10.737 15.1423 10.8815 15.1423C11.0259 15.1423 11.169 15.1139 11.3025 15.0586C11.436 15.0032 11.5573 14.9222 11.6595 14.82L16.5395 9.93897C16.7216 9.75037 16.8224 9.49777 16.8201 9.23557C16.8178 8.97338 16.7127 8.72256 16.5273 8.53716C16.3419 8.35175 16.0911 8.24658 15.8289 8.2443C15.5667 8.24202 15.3141 8.34282 15.1255 8.52497Z" fill="#F0FCFF"/>
</svg>
