<svg width="20" height="20" viewBox="0 0 13 13" fill="none" xmlns="http://www.w3.org/2000/svg">
<path d="M12.3482 5.80569V3.86437C12.3482 3.51824 12.2113 3.18628 11.9675 2.94153C11.7238 2.69678 11.3932 2.55928 11.0484 2.55928H7.14898V1.70314C7.3472 1.52435 7.47394 1.26724 7.47394 0.978817C7.47394 0.719219 7.37123 0.470253 7.18841 0.286689C7.00558 0.103125 6.75762 0 6.49907 0C6.24053 0 5.99257 0.103125 5.80974 0.286689C5.62692 0.470253 5.52421 0.719219 5.52421 0.978817C5.52421 1.26724 5.65095 1.52435 5.84917 1.70314V2.55928H1.94972C1.60499 2.55928 1.27438 2.69678 1.03061 2.94153C0.786852 3.18628 0.649907 3.51824 0.649907 3.86437V5.8207L0.603114 5.82396C0.43932 5.83584 0.286074 5.90953 0.174187 6.03022C0.0622992 6.15092 6.64499e-05 6.30966 0 6.47455V7.77964C0 7.95271 0.0684722 8.11868 0.190353 8.24106C0.312235 8.36343 0.477541 8.43219 0.649907 8.43219V11.6949C0.649907 12.041 0.786852 12.373 1.03061 12.6177C1.27438 12.8625 1.60499 13 1.94972 13H11.0484C11.3932 13 11.7238 12.8625 11.9675 12.6177C12.2113 12.373 12.3482 12.041 12.3482 11.6949V8.43219C12.5206 8.43219 12.6859 8.36343 12.8078 8.24106C12.9297 8.11868 12.9981 7.95271 12.9981 7.77964V6.51501C13.0058 6.41373 12.9898 6.31207 12.9514 6.2181C12.8201 5.89966 12.5387 5.82331 12.3482 5.80569ZM3.24954 6.47455C3.24954 5.75414 3.68628 5.16946 4.2244 5.16946C4.76252 5.16946 5.19926 5.75414 5.19926 6.47455C5.19926 7.19496 4.76252 7.77964 4.2244 7.77964C3.68628 7.77964 3.24954 7.19496 3.24954 6.47455ZM9.0974 10.3898C8.44685 10.3879 3.89944 10.3898 3.89944 10.3898V9.08473C3.89944 9.08473 8.44945 9.08343 9.10001 9.08473L9.0974 10.3898ZM8.77375 7.77964C8.23563 7.77964 7.79889 7.19496 7.79889 6.47455C7.79889 5.75414 8.23563 5.16946 8.77375 5.16946C9.31187 5.16946 9.74861 5.75414 9.74861 6.47455C9.74861 7.19496 9.31187 7.77964 8.77375 7.77964Z" fill="white" fill-opacity="0.45"/>
</svg>
