<svg width="10" height="11" viewBox="0 0 10 11" fill="none" xmlns="http://www.w3.org/2000/svg">
<path d="M4 2.31482C3.91159 2.31482 3.82681 2.34675 3.7643 2.40357C3.70179 2.4604 3.66667 2.53748 3.66667 2.61785C3.66667 2.69822 3.70179 2.7753 3.7643 2.83212C3.82681 2.88895 3.91159 2.92088 4 2.92088H6C6.08841 2.92088 6.17319 2.88895 6.2357 2.83212C6.29821 2.7753 6.33333 2.69822 6.33333 2.61785C6.33333 2.53748 6.29821 2.4604 6.2357 2.40357C6.17319 2.34675 6.08841 2.31482 6 2.31482H4ZM3.33333 5.64815C3.33333 5.80889 3.2631 5.96304 3.13807 6.0767C3.01305 6.19036 2.84348 6.25421 2.66667 6.25421C2.48986 6.25421 2.32029 6.19036 2.19526 6.0767C2.07024 5.96304 2 5.80889 2 5.64815C2 5.48742 2.07024 5.33326 2.19526 5.2196C2.32029 5.10594 2.48986 5.04209 2.66667 5.04209C2.84348 5.04209 3.01305 5.10594 3.13807 5.2196C3.2631 5.33326 3.33333 5.48742 3.33333 5.64815ZM3.33333 7.76936C3.33333 7.9301 3.2631 8.08426 3.13807 8.19791C3.01305 8.31157 2.84348 8.37542 2.66667 8.37542C2.48986 8.37542 2.32029 8.31157 2.19526 8.19791C2.07024 8.08426 2 7.9301 2 7.76936C2 7.60863 2.07024 7.45447 2.19526 7.34082C2.32029 7.22716 2.48986 7.1633 2.66667 7.1633C2.84348 7.1633 3.01305 7.22716 3.13807 7.34082C3.2631 7.45447 3.33333 7.60863 3.33333 7.76936ZM5 6.25421C5.17681 6.25421 5.34638 6.19036 5.4714 6.0767C5.59643 5.96304 5.66667 5.80889 5.66667 5.64815C5.66667 5.48742 5.59643 5.33326 5.4714 5.2196C5.34638 5.10594 5.17681 5.04209 5 5.04209C4.82319 5.04209 4.65362 5.10594 4.5286 5.2196C4.40357 5.33326 4.33333 5.48742 4.33333 5.64815C4.33333 5.80889 4.40357 5.96304 4.5286 6.0767C4.65362 6.19036 4.82319 6.25421 5 6.25421ZM5.66667 7.76936C5.66667 7.9301 5.59643 8.08426 5.4714 8.19791C5.34638 8.31157 5.17681 8.37542 5 8.37542C4.82319 8.37542 4.65362 8.31157 4.5286 8.19791C4.40357 8.08426 4.33333 7.9301 4.33333 7.76936C4.33333 7.60863 4.40357 7.45447 4.5286 7.34082C4.65362 7.22716 4.82319 7.1633 5 7.1633C5.17681 7.1633 5.34638 7.22716 5.4714 7.34082C5.59643 7.45447 5.66667 7.60863 5.66667 7.76936ZM7.33333 6.25421C7.51014 6.25421 7.67971 6.19036 7.80474 6.0767C7.92976 5.96304 8 5.80889 8 5.64815C8 5.48742 7.92976 5.33326 7.80474 5.2196C7.67971 5.10594 7.51014 5.04209 7.33333 5.04209C7.15652 5.04209 6.98695 5.10594 6.86193 5.2196C6.7369 5.33326 6.66667 5.48742 6.66667 5.64815C6.66667 5.80889 6.7369 5.96304 6.86193 6.0767C6.98695 6.19036 7.15652 6.25421 7.33333 6.25421Z" fill="#D8D8D8"/>
<path fill-rule="evenodd" clip-rule="evenodd" d="M2.33333 0.0419922C2.42174 0.0419922 2.50652 0.0739186 2.56904 0.130748C2.63155 0.187577 2.66667 0.264654 2.66667 0.345022V0.951083H7.33333V0.345022C7.33333 0.264654 7.36845 0.187577 7.43096 0.130748C7.49348 0.0739186 7.57826 0.0419922 7.66667 0.0419922C7.75507 0.0419922 7.83986 0.0739186 7.90237 0.130748C7.96488 0.187577 8 0.264654 8 0.345022V0.952901C8.16311 0.954113 8.30844 0.959366 8.436 0.968659C8.67933 0.986841 8.89267 1.02502 9.09 1.11593C9.40352 1.26132 9.65836 1.49321 9.818 1.77836C9.91867 1.95775 9.96067 2.15169 9.98067 2.3723C10 2.58745 10 2.8523 10 3.18078V7.81229C10 8.14078 10 8.40623 9.98067 8.62017C9.96067 8.84139 9.91867 9.03533 9.818 9.21472C9.65824 9.49964 9.40342 9.7313 9.09 9.87654C8.89267 9.96805 8.67933 10.0062 8.43667 10.0244C8.2 10.042 7.90867 10.042 7.548 10.042H2.45267C2.09133 10.042 1.79933 10.042 1.564 10.0244C1.32067 10.0062 1.10733 9.96805 0.91 9.87654C0.596337 9.73141 0.341263 9.49973 0.181333 9.21472C0.0813332 9.03533 0.0393332 8.84139 0.0193332 8.62078C-1.29143e-07 8.40563 0 8.14017 0 7.81169V3.18139C0 2.89351 -1.24176e-08 2.65533 0.0133333 2.45593L0.0193332 2.37351C0.0393332 2.1523 0.0813332 1.95836 0.181333 1.77896C0.34115 1.49372 0.596236 1.26183 0.91 1.11654C1.10733 1.02563 1.32067 0.987447 1.56333 0.969265C1.69178 0.959972 1.83733 0.95472 2 0.953507V0.345022C2 0.264654 2.03512 0.187577 2.09763 0.130748C2.16014 0.0739186 2.24493 0.0419922 2.33333 0.0419922ZM2 1.86017V1.55896C1.87254 1.55992 1.74514 1.56457 1.618 1.5729C1.41667 1.58745 1.30067 1.61533 1.21267 1.65593C1.02434 1.74312 0.871236 1.8823 0.775333 2.05351C0.730667 2.13351 0.7 2.23896 0.684 2.42199C0.666667 2.60927 0.666667 2.84926 0.666667 3.19351V3.52684H9.33333V3.19351C9.33333 2.84926 9.33333 2.60927 9.316 2.42199C9.3 2.23896 9.26933 2.13351 9.22467 2.05351C9.12877 1.8823 8.97566 1.74312 8.78733 1.65593C8.69933 1.61533 8.58333 1.58745 8.382 1.5729C8.25486 1.56457 8.12746 1.55992 8 1.55896V1.86017C8 1.94054 7.96488 2.01762 7.90237 2.07445C7.83986 2.13128 7.75507 2.1632 7.66667 2.1632C7.57826 2.1632 7.49348 2.13128 7.43096 2.07445C7.36845 2.01762 7.33333 1.94054 7.33333 1.86017V1.55714H2.66667V1.86017C2.66667 1.94054 2.63155 2.01762 2.56904 2.07445C2.50652 2.13128 2.42174 2.1632 2.33333 2.1632C2.24493 2.1632 2.16014 2.13128 2.09763 2.07445C2.03512 2.01762 2 1.94054 2 1.86017ZM9.33333 4.1329H0.666667V7.79957C0.666667 8.14381 0.666667 8.38442 0.684 8.57108C0.7 8.75411 0.730667 8.85957 0.775333 8.93957C0.871236 9.11078 1.02434 9.24996 1.21267 9.33714C1.30067 9.37775 1.41667 9.40563 1.618 9.42017C1.824 9.43593 2.088 9.43593 2.46667 9.43593H7.53333C7.912 9.43593 8.17667 9.43593 8.382 9.42017C8.58333 9.40563 8.69933 9.37775 8.78733 9.33714C8.97566 9.24996 9.12877 9.11078 9.22467 8.93957C9.26933 8.85957 9.3 8.75411 9.316 8.57108C9.33333 8.38442 9.33333 8.14381 9.33333 7.79957V4.1329Z" fill="#D8D8D8"/>
</svg>
