<svg width="20" height="20" viewBox="0 0 20 20" fill="none" xmlns="http://www.w3.org/2000/svg">
<path d="M6.72513 10.4525L13.6914 17.09C13.8076 17.2008 13.962 17.2626 14.1226 17.2626C14.2832 17.2626 14.4376 17.2008 14.5539 17.09L14.5614 17.0825C14.6179 17.0288 14.6629 16.9641 14.6937 16.8925C14.7245 16.8208 14.7403 16.7436 14.7403 16.6656C14.7403 16.5876 14.7245 16.5105 14.6937 16.4388C14.6629 16.3671 14.6179 16.3025 14.5614 16.2488L8.00138 9.99876L14.5614 3.75126C14.6179 3.69755 14.6629 3.63289 14.6937 3.56122C14.7245 3.48956 14.7403 3.41238 14.7403 3.33439C14.7403 3.2564 14.7245 3.17922 14.6937 3.10756C14.6629 3.03589 14.6179 2.97123 14.5614 2.91751L14.5539 2.91001C14.4376 2.79921 14.2832 2.73739 14.1226 2.73739C13.962 2.73739 13.8076 2.79921 13.6914 2.91001L6.72513 9.54751C6.66386 9.60589 6.61509 9.67609 6.58176 9.75387C6.54843 9.83166 6.53125 9.91539 6.53125 10C6.53125 10.0846 6.54843 10.1684 6.58176 10.2462C6.61509 10.3239 6.66386 10.3941 6.72513 10.4525Z" fill="white"/>
</svg>
