<svg width="227" height="227" viewBox="0 0 227 227" fill="none" xmlns="http://www.w3.org/2000/svg">
<path fill-rule="evenodd" clip-rule="evenodd" d="M81.72 217.92H63.56V227H81.72V217.92ZM54.48 227H0V172.52H54.48V227ZM9.08 181.6V217.92H45.4V181.6H9.08ZM18.16 208.84V190.68H36.32V208.84H18.16ZM181.6 199.76H172.52V208.84H181.6V199.76ZM199.76 172.52V190.68H190.68V199.76H199.76V190.68H217.92V181.6H208.84V172.52H199.76ZM18.16 154.36H0V163.44H18.16V154.36ZM199.76 145.28V154.36H208.84V145.28H199.76ZM27.24 118.04V127.12H18.16V136.2H27.24V145.28H36.32V127.12H45.4V118.04H27.24ZM199.76 136.2V127.12H190.68V136.2H199.76ZM9.08 90.8V72.64H0V90.8H9.08ZM227 54.48H172.52V0H227V54.48ZM54.48 54.48H0V0H54.48V54.48ZM154.36 45.4H145.28V54.48H154.36V45.4ZM127.12 45.4H136.2V36.32H127.12V45.4ZM9.08 9.08V45.4H45.4V9.08H9.08ZM181.6 9.08V45.4H217.92V9.08H181.6ZM18.16 36.32V18.16H36.32V36.32H18.16ZM190.68 36.32V18.16H208.84V36.32H190.68ZM154.36 36.32H145.28V18.16H136.2V0H127.12V9.08H118.04V18.16H108.96V27.24H90.8V9.08H99.88V18.16H108.96V0H90.8V9.08H81.72V18.16H63.56V27.24H81.72V36.32H63.56V45.4H72.64V54.48H81.72V45.4H90.8V36.32H99.88V54.48H81.72V72.64H72.64V81.72H81.72V90.8H90.8V72.64H99.88V63.56H108.96V45.4H118.04V54.48H127.12V63.56H118.04V72.64H99.88V90.8H108.96V127.12H90.8V136.2H81.72V145.28H72.64V127.12H63.56V136.2H54.48V118.04H63.56V108.96H72.64V127.12H90.8V118.04H99.88V99.88H90.8V108.96H81.72V99.88H72.64V81.72H63.56V72.64H72.64V54.48H63.56V63.56H54.48V72.64H36.32V63.56H18.16V72.64H27.24V81.72H18.16V90.8H9.08V99.88H0V108.96H18.16V99.88H27.24V108.96H18.16V118.04H0V127.12H9.08V136.2H0V145.28H18.16V154.36H27.24V163.44H45.4V145.28H54.48V163.44H63.56V154.36H90.8V163.44H99.88V172.52H108.96V181.6H99.88V172.52H81.72V163.44H63.56V181.6H81.72V190.68H63.56V199.76H72.64V208.84H81.72V199.76H90.8V190.68H108.96V199.76H118.04V190.68H127.12V199.76H118.04V208.84H108.96V199.76H90.8V208.84H81.72V217.92H90.8V227H99.88V217.92H108.96V227H118.04V217.92H127.12V227H145.28V217.92H136.2V199.76H145.28V190.68H163.44V181.6H136.2V163.44H154.36V172.52H163.44V154.36H154.36V145.28H163.44V154.36H172.52V145.28H190.68V163.44H181.6V154.36H172.52V172.52H163.44V181.6H172.52V172.52H190.68V181.6H181.6V190.68H163.44V199.76H145.28V208.84H154.36V227H172.52V217.92H181.6V227H217.92V217.92H227V208.84H217.92V199.76H227V172.52H217.92V163.44H227V154.36H217.92V145.28H227V136.2H208.84V127.12H217.92V118.04H208.84V108.96H217.92V118.04H227V81.72H217.92V72.64H227V63.56H208.84V72.64H199.76V81.72H190.68V90.8H181.6V72.64H199.76V63.56H172.52V72.64H163.44V27.24H154.36V36.32ZM163.44 18.16V0H154.36V9.08H145.28V18.16H163.44ZM81.72 0H63.56V9.08H81.72V0ZM208.84 208.84H199.76V217.92H208.84V208.84ZM136.2 145.28V154.36H145.28V145.28H136.2ZM108.96 136.2H99.88V154.36H118.04V172.52H127.12V145.28H108.96V136.2ZM36.32 81.72H27.24V90.8H36.32V108.96H54.48V99.88H63.56V90.8H36.32V81.72ZM199.76 90.8V99.88H217.92V90.8H199.76ZM154.36 136.2H181.6V127.12H190.68V118.04H181.6V108.96H190.68V99.88H181.6V108.96H172.52V90.8H163.44V81.72H154.36V90.8H163.44V108.96H172.52V118.04H181.6V127.12H154.36V136.2ZM118.04 99.88H127.12V118.04H118.04V127.12H127.12V136.2H136.2V127.12H145.28V118.04H154.36V99.88H145.28V108.96H136.2V99.88H127.12V90.8H145.28V72.64H154.36V63.56H136.2V81.72H118.04V99.88ZM127.12 36.32V18.16H118.04V36.32H127.12Z" fill="white"/>
</svg>
