<svg width="18" height="22" viewBox="0 0 18 22" fill="none" xmlns="http://www.w3.org/2000/svg">
<path d="M13 0.5C14.3261 0.5 15.5979 1.02678 16.5355 1.96447C17.4732 2.90215 18 4.17392 18 5.5V13.5C18 14.8261 17.4732 16.0979 16.5355 17.0355C15.5979 17.9732 14.3261 18.5 13 18.5H5C3.67392 18.5 2.40215 17.9732 1.46447 17.0355C0.526784 16.0979 0 14.8261 0 13.5V5.5C0 4.17392 0.526784 2.90215 1.46447 1.96447C2.40215 1.02678 3.67392 0.5 5 0.5H13ZM9 5.5C7.93913 5.5 6.92172 5.92143 6.17157 6.67157C5.42143 7.42172 5 8.43913 5 9.5C5 10.5609 5.42143 11.5783 6.17157 12.3284C6.92172 13.0786 7.93913 13.5 9 13.5C10.0609 13.5 11.0783 13.0786 11.8284 12.3284C12.5786 11.5783 13 10.5609 13 9.5C13 8.43913 12.5786 7.42172 11.8284 6.67157C11.0783 5.92143 10.0609 5.5 9 5.5ZM9 7.5C9.53043 7.5 10.0391 7.71071 10.4142 8.08579C10.7893 8.46086 11 8.96957 11 9.5C11 10.0304 10.7893 10.5391 10.4142 10.9142C10.0391 11.2893 9.53043 11.5 9 11.5C8.46957 11.5 7.96086 11.2893 7.58579 10.9142C7.21071 10.5391 7 10.0304 7 9.5C7 8.96957 7.21071 8.46086 7.58579 8.08579C7.96086 7.71071 8.46957 7.5 9 7.5ZM13.5 4C13.2348 4 12.9804 4.10536 12.7929 4.29289C12.6054 4.48043 12.5 4.73478 12.5 5C12.5 5.26522 12.6054 5.51957 12.7929 5.70711C12.9804 5.89464 13.2348 6 13.5 6C13.7652 6 14.0196 5.89464 14.2071 5.70711C14.3946 5.51957 14.5 5.26522 14.5 5C14.5 4.73478 14.3946 4.48043 14.2071 4.29289C14.0196 4.10536 13.7652 4 13.5 4Z" fill="#3F7DF2"/>
</svg>
