<svg width="20" height="20" viewBox="0 0 20 20" fill="none" xmlns="http://www.w3.org/2000/svg">
<path d="M9.58366 2.5C11.6833 2.5 13.6969 3.33407 15.1816 4.81874C16.6663 6.3034 17.5003 8.31704 17.5003 10.4167C17.5003 12.5163 16.6663 14.5299 15.1816 16.0146C13.6969 17.4993 11.6833 18.3333 9.58366 18.3333C7.48403 18.3333 5.47039 17.4993 3.98573 16.0146C2.50107 14.5299 1.66699 12.5163 1.66699 10.4167C1.66699 8.31704 2.50107 6.3034 3.98573 4.81874C5.47039 3.33407 7.48403 2.5 9.58366 2.5ZM9.58366 3.33333C7.70504 3.33333 5.90337 4.07961 4.57499 5.40799C3.2466 6.73638 2.50033 8.53805 2.50033 10.4167C2.50033 12.2953 3.2466 14.097 4.57499 15.4253C5.90337 16.7537 7.70504 17.5 9.58366 17.5C10.5139 17.5 11.4349 17.3168 12.2943 16.9608C13.1537 16.6048 13.9346 16.0831 14.5923 15.4253C15.2501 14.7676 15.7718 13.9867 16.1278 13.1273C16.4838 12.268 16.667 11.3469 16.667 10.4167C16.667 8.53805 15.9207 6.73638 14.5923 5.40799C13.2639 4.07961 11.4623 3.33333 9.58366 3.33333ZM9.16699 6.66667V8.33333H10.0003V6.66667H9.16699ZM9.16699 10V14.1667H10.0003V10H9.16699Z" fill="#FC8B09"/>
</svg>
