<svg width="16" height="17" viewBox="0 0 16 17" fill="none" xmlns="http://www.w3.org/2000/svg">
<path d="M4 7.83337C4 5.94804 4 5.00471 4.586 4.41937C5.17133 3.83337 6.11467 3.83337 8 3.83337H10C11.8853 3.83337 12.8287 3.83337 13.414 4.41937C14 5.00471 14 5.94804 14 7.83337V11.1667C14 13.052 14 13.9954 13.414 14.5807C12.8287 15.1667 11.8853 15.1667 10 15.1667H8C6.11467 15.1667 5.17133 15.1667 4.586 14.5807C4 13.9954 4 13.052 4 11.1667V7.83337Z" stroke="#40DDFF" stroke-width="1.5"/>
<path d="M4 13.1667C3.46957 13.1667 2.96086 12.956 2.58579 12.5809C2.21071 12.2058 2 11.6971 2 11.1667V7.16671C2 4.65271 2 3.39537 2.78133 2.61471C3.56267 1.83404 4.81933 1.83337 7.33333 1.83337H10C10.5304 1.83337 11.0391 2.04409 11.4142 2.41916C11.7893 2.79423 12 3.30294 12 3.83337" stroke="#40DDFF" stroke-width="1.5"/>
</svg>
