<svg width="20" height="27" viewBox="0 0 20 27" fill="none" xmlns="http://www.w3.org/2000/svg">
<path d="M19.4688 20.9514V25.3125C19.4688 25.5363 19.3799 25.7509 19.2216 25.9091C19.0634 26.0673 18.8488 26.1562 18.625 26.1562C18.4012 26.1562 18.1866 26.0673 18.0284 25.9091C17.8701 25.7509 17.7812 25.5363 17.7812 25.3125V20.9514C17.7773 19.8684 17.5506 18.7978 17.1151 17.8062C16.6796 16.8146 16.0448 15.9232 15.25 15.1875V21.3416C15.2498 21.5232 15.1911 21.6999 15.0825 21.8454C14.974 21.9909 14.8213 22.0976 14.6473 22.1495C14.4733 22.2013 14.2872 22.1957 14.1167 22.1334C13.9461 22.0711 13.8002 21.9554 13.7007 21.8035L12.5743 20.0834C12.5658 20.0707 12.5574 20.057 12.55 20.0433C12.3845 19.7511 12.1098 19.5366 11.7862 19.447C11.4626 19.3574 11.1167 19.4 10.8245 19.5655C10.5324 19.731 10.3179 20.0057 10.2283 20.3293C10.1387 20.6529 10.1813 20.9988 10.3468 21.291L12.6808 24.8548C12.8033 25.042 12.8464 25.2703 12.8006 25.4894C12.7548 25.7084 12.6239 25.9003 12.4366 26.0228C12.2493 26.1453 12.0211 26.1884 11.802 26.1427C11.583 26.0969 11.3911 25.9659 11.2686 25.7787L8.92082 22.1927L8.89551 22.1526C8.85543 22.083 8.81852 22.0124 8.78477 21.9417H0.90625C0.682474 21.9417 0.467863 21.8528 0.309629 21.6946C0.151395 21.5363 0.0625 21.3217 0.0625 21.098V10.125C0.0625 9.67744 0.24029 9.24822 0.556757 8.93175C0.873225 8.61528 1.30245 8.43749 1.75 8.43749H6.8125V13.5C6.8125 13.7238 6.90139 13.9384 7.05963 14.0966C7.21786 14.2548 7.43247 14.3437 7.65625 14.3437C7.88003 14.3437 8.09464 14.2548 8.25287 14.0966C8.41111 13.9384 8.5 13.7238 8.5 13.5V8.43749H13.5625C14.0101 8.43749 14.4393 8.61528 14.7557 8.93175C15.0722 9.24822 15.25 9.67744 15.25 10.125V13.038C16.545 13.9132 17.6065 15.0917 18.3418 16.471C19.0771 17.8502 19.464 19.3883 19.4688 20.9514ZM8.5 3.72409L10.4343 5.65945C10.5926 5.81777 10.8073 5.90671 11.0312 5.90671C11.2552 5.90671 11.4699 5.81777 11.6282 5.65945C11.7865 5.50112 11.8755 5.28639 11.8755 5.06249C11.8755 4.83859 11.7865 4.62386 11.6282 4.46554L8.2532 1.09054C8.17484 1.01209 8.08179 0.949856 7.97936 0.907395C7.87693 0.864934 7.76713 0.843079 7.65625 0.843079C7.54537 0.843079 7.43557 0.864934 7.33314 0.907395C7.23071 0.949856 7.13766 1.01209 7.0593 1.09054L3.6843 4.46554C3.52597 4.62386 3.43703 4.83859 3.43703 5.06249C3.43703 5.28639 3.52597 5.50112 3.6843 5.65945C3.84262 5.81777 4.05735 5.90671 4.28125 5.90671C4.50515 5.90671 4.71988 5.81777 4.8782 5.65945L6.8125 3.72409V8.43749H8.5V3.72409Z" fill="white" fill-opacity="0.45"/>
</svg>
