<svg width="19" height="19" viewBox="0 0 19 19" fill="none" xmlns="http://www.w3.org/2000/svg">
<path fill-rule="evenodd" clip-rule="evenodd" d="M8.65505 1.74993C8.92055 1.48478 9.27577 1.32877 9.65064 1.31266C10.0255 1.29656 10.3928 1.42153 10.6801 1.66293L10.7761 1.75068L12.2011 3.17493H14.2156C14.5939 3.175 14.9582 3.31801 15.2355 3.57531C15.5128 3.8326 15.6827 4.18519 15.7111 4.56243L15.7156 4.67493V6.68943L17.1406 8.11443C17.4059 8.37996 17.5621 8.73533 17.5782 9.11038C17.5943 9.48542 17.4692 9.85288 17.2276 10.1402L17.1398 10.2354L15.7148 11.6604V13.6749C15.7149 14.0534 15.572 14.4179 15.3147 14.6953C15.0574 14.9728 14.7047 15.1428 14.3273 15.1712L14.2156 15.1749H12.2018L10.7768 16.5999C10.5113 16.8653 10.1559 17.0214 9.78085 17.0375C9.40581 17.0536 9.03836 16.9285 8.75105 16.6869L8.6558 16.5999L7.2308 15.1749H5.21555C4.83712 15.175 4.47263 15.0321 4.19514 14.7748C3.91766 14.5175 3.74769 14.1648 3.7193 13.7874L3.71555 13.6749V11.6604L2.29055 10.2354C2.0252 9.9699 1.86905 9.61452 1.85295 9.23948C1.83684 8.86443 1.96194 8.49698 2.20355 8.20968L2.29055 8.11443L3.71555 6.68943V4.67493C3.71562 4.29663 3.85863 3.93232 4.11593 3.65499C4.37323 3.37767 4.72582 3.2078 5.10305 3.17943L5.21555 3.17493H7.23005L8.65505 1.74993Z" fill="#08C949"/>
<path fill-rule="evenodd" clip-rule="evenodd" d="M12.0238 6.91219L8.84078 10.0952L7.51478 8.76919C7.37405 8.62856 7.18321 8.5496 6.98426 8.54967C6.78531 8.54974 6.59453 8.62884 6.4539 8.76957C6.31327 8.9103 6.2343 9.10113 6.23438 9.30008C6.23445 9.49904 6.31355 9.68981 6.45428 9.83044L8.25728 11.6334C8.33389 11.7101 8.42485 11.7709 8.52497 11.8124C8.62509 11.8539 8.7324 11.8752 8.84078 11.8752C8.94915 11.8752 9.05646 11.8539 9.15658 11.8124C9.2567 11.7709 9.34766 11.7101 9.42428 11.6334L13.0843 7.97269C13.2209 7.83124 13.2965 7.64179 13.2948 7.44514C13.2931 7.2485 13.2142 7.06039 13.0751 6.92133C12.9361 6.78227 12.748 6.7034 12.5513 6.70169C12.3547 6.69998 12.1652 6.77558 12.0238 6.91219Z" fill="#F0FCFF"/>
</svg>
