<svg width="19" height="19" viewBox="0 0 19 19" fill="none" xmlns="http://www.w3.org/2000/svg">
<path fill-rule="evenodd" clip-rule="evenodd" d="M8.65505 2.46587C8.92055 2.20073 9.27577 2.04471 9.65064 2.02861C10.0255 2.0125 10.3928 2.13747 10.6801 2.37887L10.7761 2.46662L12.2011 3.89087H14.2156C14.5939 3.89094 14.9582 4.03395 15.2355 4.29125C15.5128 4.54855 15.6827 4.90113 15.7111 5.27837L15.7156 5.39087V7.40537L17.1406 8.83037C17.4059 9.0959 17.5621 9.45127 17.5782 9.82632C17.5943 10.2014 17.4692 10.5688 17.2276 10.8561L17.1398 10.9514L15.7148 12.3764V14.3909C15.7149 14.7693 15.572 15.1338 15.3147 15.4113C15.0574 15.6888 14.7047 15.8587 14.3273 15.8871L14.2156 15.8909H12.2018L10.7768 17.3159C10.5113 17.5812 10.1559 17.7374 9.78085 17.7535C9.40581 17.7696 9.03836 17.6445 8.75105 17.4029L8.6558 17.3159L7.2308 15.8909H5.21555C4.83712 15.891 4.47263 15.7481 4.19514 15.4907C3.91766 15.2334 3.74769 14.8807 3.7193 14.5034L3.71555 14.3909V12.3764L2.29055 10.9514C2.0252 10.6858 1.86905 10.3305 1.85295 9.95542C1.83684 9.58038 1.96194 9.21292 2.20355 8.92562L2.29055 8.83037L3.71555 7.40537V5.39087C3.71562 5.01257 3.85863 4.64826 4.11593 4.37093C4.37323 4.09361 4.72582 3.92374 5.10305 3.89537L5.21555 3.89087H7.23005L8.65505 2.46587Z" fill="#309AFF"/>
<path fill-rule="evenodd" clip-rule="evenodd" d="M12.0238 7.62814L8.84078 10.8111L7.51478 9.48514C7.37405 9.34451 7.18321 9.26554 6.98426 9.26561C6.78531 9.26568 6.59453 9.34478 6.4539 9.48551C6.31327 9.62624 6.2343 9.81707 6.23438 10.016C6.23445 10.215 6.31355 10.4058 6.45428 10.5464L8.25728 12.3494C8.33389 12.426 8.42485 12.4868 8.52497 12.5283C8.62509 12.5698 8.7324 12.5912 8.84078 12.5912C8.94915 12.5912 9.05646 12.5698 9.15658 12.5283C9.2567 12.4868 9.34766 12.426 9.42428 12.3494L13.0843 8.68864C13.2209 8.54719 13.2965 8.35773 13.2948 8.16109C13.2931 7.96444 13.2142 7.77633 13.0751 7.63727C12.9361 7.49822 12.748 7.41934 12.5513 7.41763C12.3547 7.41592 12.1652 7.49152 12.0238 7.62814Z" fill="#F0FCFF"/>
</svg>
