<svg width="19" height="19" viewBox="0 0 19 19" fill="none" xmlns="http://www.w3.org/2000/svg">
<path fill-rule="evenodd" clip-rule="evenodd" d="M8.65505 1.80913C8.92055 1.54399 9.27577 1.38797 9.65064 1.37187C10.0255 1.35576 10.3928 1.48074 10.6801 1.72213L10.7761 1.80988L12.2011 3.23413H14.2156C14.5939 3.2342 14.9582 3.37721 15.2355 3.63451C15.5128 3.89181 15.6827 4.24439 15.7111 4.62163L15.7156 4.73413V6.74863L17.1406 8.17363C17.4059 8.43916 17.5621 8.79454 17.5782 9.16958C17.5943 9.54463 17.4692 9.91208 17.2276 10.1994L17.1398 10.2946L15.7148 11.7196V13.7341C15.7149 14.1126 15.572 14.4771 15.3147 14.7545C15.0574 15.032 14.7047 15.202 14.3273 15.2304L14.2156 15.2341H12.2018L10.7768 16.6591C10.5113 16.9245 10.1559 17.0806 9.78085 17.0967C9.40581 17.1128 9.03836 16.9877 8.75105 16.7461L8.6558 16.6591L7.2308 15.2341H5.21555C4.83712 15.2343 4.47263 15.0913 4.19514 14.834C3.91766 14.5767 3.74769 14.224 3.7193 13.8466L3.71555 13.7341V11.7196L2.29055 10.2946C2.0252 10.0291 1.86905 9.67373 1.85295 9.29868C1.83684 8.92364 1.96194 8.55618 2.20355 8.26888L2.29055 8.17363L3.71555 6.74863V4.73413C3.71562 4.35583 3.85863 3.99152 4.11593 3.7142C4.37323 3.43687 4.72582 3.267 5.10305 3.23863L5.21555 3.23413H7.23005L8.65505 1.80913Z" fill="#EA0A0E"/>
<path fill-rule="evenodd" clip-rule="evenodd" d="M12.0238 6.9714L8.84078 10.1544L7.51478 8.8284C7.37405 8.68777 7.18321 8.6088 6.98426 8.60887C6.78531 8.60894 6.59453 8.68804 6.4539 8.82877C6.31327 8.9695 6.2343 9.16034 6.23438 9.35929C6.23445 9.55824 6.31355 9.74902 6.45428 9.88965L8.25728 11.6926C8.33389 11.7693 8.42485 11.8301 8.52497 11.8716C8.62509 11.9131 8.7324 11.9344 8.84078 11.9344C8.94915 11.9344 9.05646 11.9131 9.15658 11.8716C9.2567 11.8301 9.34766 11.7693 9.42428 11.6926L13.0843 8.0319C13.2209 7.89045 13.2965 7.70099 13.2948 7.50435C13.2931 7.3077 13.2142 7.11959 13.0751 6.98053C12.9361 6.84148 12.748 6.7626 12.5513 6.76089C12.3547 6.75918 12.1652 6.83478 12.0238 6.9714Z" fill="#F0FCFF"/>
</svg>
