<svg width="13" height="9" viewBox="0 0 13 9" fill="none" xmlns="http://www.w3.org/2000/svg">
<path d="M6.32705 6.87316C7.52972 6.87316 8.50468 5.8982 8.50468 4.69553C8.50468 3.49285 7.52972 2.51789 6.32705 2.51789C5.12437 2.51789 4.14941 3.49285 4.14941 4.69553C4.14941 5.8982 5.12437 6.87316 6.32705 6.87316Z" stroke="#309AFF" stroke-width="0.933272"/>
<path d="M11.422 4.0323C11.6634 4.32597 11.7841 4.47218 11.7841 4.69555C11.7841 4.91891 11.6634 5.06512 11.422 5.35879C10.5385 6.43143 8.58987 8.42863 6.32762 8.42863C4.06537 8.42863 2.1167 6.43143 1.2332 5.35879C0.991797 5.06512 0.871094 4.91891 0.871094 4.69555C0.871094 4.47218 0.991797 4.32597 1.2332 4.0323C2.1167 2.95966 4.06537 0.96246 6.32762 0.96246C8.58987 0.96246 10.5385 2.95966 11.422 4.0323Z" stroke="#309AFF" stroke-width="0.933272"/>
</svg>
