<svg width="20" height="20" viewBox="0 0 18 13" fill="none" xmlns="http://www.w3.org/2000/svg">
<path d="M14.25 11.1429V13H5.25V11.1429C5.25 11.1429 5.25 7.42857 9.75 7.42857C14.25 7.42857 14.25 11.1429 14.25 11.1429ZM12 2.78572C12 2.23475 11.868 1.69616 11.6208 1.23806C11.3736 0.779947 11.0222 0.422895 10.611 0.212051C10.1999 0.00120701 9.7475 -0.0539594 9.31105 0.053528C8.87459 0.161015 8.47368 0.426329 8.15901 0.815918C7.84434 1.20551 7.63005 1.70187 7.54323 2.24225C7.45642 2.78262 7.50097 3.34274 7.67127 3.85176C7.84157 4.36078 8.12996 4.79585 8.49997 5.10195C8.86998 5.40805 9.30499 5.57143 9.75 5.57143C10.3467 5.57143 10.919 5.27794 11.341 4.75551C11.7629 4.23309 12 3.52453 12 2.78572ZM14.4 7.48429C14.81 7.95257 15.1405 8.51727 15.3723 9.14542C15.6041 9.77357 15.7325 10.4526 15.75 11.1429V13H18V11.1429C18 11.1429 18 7.93929 14.4 7.48429ZM13.5 1.05997e-06C13.2734 1.73656e-05 13.0482 0.0438798 12.8325 0.130001C13.2713 0.909044 13.5065 1.83596 13.5065 2.78572C13.5065 3.73547 13.2713 4.66239 12.8325 5.44143C13.0482 5.52755 13.2734 5.57141 13.5 5.57143C14.0967 5.57143 14.669 5.27794 15.091 4.75551C15.5129 4.23309 15.75 3.52453 15.75 2.78572C15.75 2.0469 15.5129 1.33834 15.091 0.815918C14.669 0.293495 14.0967 1.05997e-06 13.5 1.05997e-06ZM6 4.64286H3.75V1.85714H2.25V4.64286H0V6.5H2.25V9.28571H3.75V6.5H6V4.64286Z" fill="white" fill-opacity="0.45"/>
</svg>
