<svg width="24" height="24" viewBox="0 0 24 24" fill="none" xmlns="http://www.w3.org/2000/svg">
<g clip-path="url(#clip0_316_759)">
<path d="M20 13.6V12C20 11.5756 19.8315 11.1687 19.5314 10.8686C19.2314 10.5686 18.8244 10.4 18.4 10.4H2.40005C1.9757 10.4 1.56874 10.5686 1.26868 10.8686C0.96862 11.1687 0.800049 11.5756 0.800049 12V21.6C0.800049 22.0243 0.96862 22.4313 1.26868 22.7314C1.56874 23.0314 1.9757 23.2 2.40005 23.2H18.4C18.8244 23.2 19.2314 23.0314 19.5314 22.7314C19.8315 22.4313 20 22.0243 20 21.6V20M20 13.6H13.6C12.7514 13.6 11.9374 13.9371 11.3373 14.5372C10.7372 15.1374 10.4 15.9513 10.4 16.8C10.4 17.6487 10.7372 18.4626 11.3373 19.0627C11.9374 19.6628 12.7514 20 13.6 20H20M20 13.6C20.8487 13.6 21.6627 13.9371 22.2628 14.5372C22.8629 15.1374 23.2 15.9513 23.2 16.8C23.2 17.6487 22.8629 18.4626 22.2628 19.0627C21.6627 19.6628 20.8487 20 20 20M5.60005 10.4V5.59999C5.60005 4.32695 6.10576 3.10605 7.00594 2.20588C7.90611 1.3057 9.12701 0.799988 10.4 0.799988C11.6731 0.799988 12.894 1.3057 13.7942 2.20588C14.6943 3.10605 15.2 4.32695 15.2 5.59999V10.4M19.2 16.8H20.8M16 16.8H17.6M12.8 16.8H14.4" stroke="url(#paint0_linear_316_759)"/>
</g>
<defs>
<linearGradient id="paint0_linear_316_759" x1="-0.524682" y1="5.27999" x2="24.3567" y2="-1.46825" gradientUnits="userSpaceOnUse">
<stop stop-color="white" stop-opacity="0.6"/>
<stop offset="1" stop-color="white" stop-opacity="0.2"/>
</linearGradient>
<clipPath id="clip0_316_759">
<rect width="24" height="24" fill="white"/>
</clipPath>
</defs>
</svg>
