<svg width="20" height="21" viewBox="0 0 20 21" fill="none" xmlns="http://www.w3.org/2000/svg">
<path d="M10.8334 8.29888H9.16675V6.63221H10.8334M10.8334 14.9655H9.16675V9.96555H10.8334M10.0001 2.46555C8.90573 2.46555 7.8221 2.68109 6.81105 3.09988C5.80001 3.51867 4.88135 4.1325 4.10752 4.90632C2.54472 6.46913 1.66675 8.58874 1.66675 10.7989C1.66675 13.009 2.54472 15.1286 4.10752 16.6914C4.88135 17.4653 5.80001 18.0791 6.81105 18.4979C7.8221 18.9167 8.90573 19.1322 10.0001 19.1322C12.2102 19.1322 14.3298 18.2542 15.8926 16.6914C17.4554 15.1286 18.3334 13.009 18.3334 10.7989C18.3334 9.70453 18.1179 8.6209 17.6991 7.60985C17.2803 6.5988 16.6665 5.68014 15.8926 4.90632C15.1188 4.1325 14.2002 3.51867 13.1891 3.09988C12.1781 2.68109 11.0944 2.46555 10.0001 2.46555Z" fill="#EA0A0E"/>
</svg>
