<svg width="24" height="24" viewBox="0 0 24 24" fill="none" xmlns="http://www.w3.org/2000/svg">
<path d="M12 6V18M15 9.5C15 8.12 13.657 7 12 7C10.343 7 9 8.12 9 9.5C9 10.88 10.343 12 12 12C13.657 12 15 13.12 15 14.5C15 15.88 13.657 17 12 17C10.343 17 9 15.88 9 14.5" stroke="url(#paint0_linear_22_3476)" stroke-width="1.5" stroke-linecap="round"/>
<path d="M7 3.338C8.51945 2.45872 10.2445 1.9971 12 2C17.523 2 22 6.477 22 12C22 17.523 17.523 22 12 22C6.477 22 2 17.523 2 12C2 10.179 2.487 8.47 3.338 7" stroke="url(#paint1_linear_22_3476)" stroke-width="1.5" stroke-linecap="round"/>
<defs>
<linearGradient id="paint0_linear_22_3476" x1="9.22472" y1="2.47059" x2="15.205" y2="2.5117" gradientUnits="userSpaceOnUse">
<stop stop-color="white" stop-opacity="0.4"/>
<stop offset="1" stop-color="white"/>
</linearGradient>
<linearGradient id="paint1_linear_22_3476" x1="2.74906" y1="-3.88237" x2="22.6805" y2="-3.60834" gradientUnits="userSpaceOnUse">
<stop stop-color="white" stop-opacity="0.4"/>
<stop offset="1" stop-color="white"/>
</linearGradient>
</defs>
</svg>
