<svg width="19" height="22" viewBox="0 0 19 22" fill="none" xmlns="http://www.w3.org/2000/svg">
<path d="M6.21582 16.8846C8.02882 14.9306 11.3828 14.8386 13.2158 16.8846M11.6558 10.8846C11.6558 11.9896 10.7848 12.8846 9.70882 12.8846C8.63382 12.8846 7.76182 11.9896 7.76182 10.8846C7.76182 9.77961 8.63382 8.88461 9.70882 8.88461C10.7838 8.88461 11.6568 9.77961 11.6568 10.8846" stroke="url(#paint0_linear_76_1173)" stroke-width="1.5" stroke-linecap="round" stroke-linejoin="round"/>
<path d="M7.21582 2.88661C4.57182 2.89661 3.15682 2.98861 2.24082 3.85661C1.21582 4.82761 1.21582 6.39061 1.21582 9.51661V14.2536C1.21582 17.3796 1.21582 18.9436 2.24082 19.9136C3.26582 20.8856 4.91582 20.8856 8.21582 20.8856H11.2158C14.5158 20.8856 16.1658 20.8856 17.1908 19.9146C18.2158 18.9426 18.2158 17.3796 18.2158 14.2546V9.51661C18.2158 6.39061 18.2158 4.82761 17.1908 3.85661C16.2748 2.98861 14.8608 2.89661 12.2158 2.88661" stroke="url(#paint1_linear_76_1173)" stroke-width="1.5" stroke-linecap="round" stroke-linejoin="round"/>
<path d="M7.48781 2.51661C7.58381 2.10161 7.63181 1.89361 7.72381 1.72461C7.83818 1.52353 7.99381 1.34891 8.18046 1.21224C8.36711 1.07557 8.58057 0.979932 8.8068 0.931613C9.0098 0.884613 9.24581 0.884613 9.71581 0.884613C10.1858 0.884613 10.4218 0.884613 10.6248 0.931613C10.851 0.979932 11.0645 1.07557 11.2512 1.21224C11.4378 1.34891 11.5934 1.52353 11.7078 1.72461C11.7998 1.89461 11.8478 2.10161 11.9438 2.51661L12.0268 2.87661C12.1968 3.61161 12.2818 3.97961 12.1538 4.26261C12.0666 4.45045 11.9247 4.60762 11.7468 4.71361C11.4658 4.88461 11.0478 4.88461 10.2138 4.88461H9.21781C8.38381 4.88461 7.96581 4.88461 7.68481 4.71461C7.50673 4.60835 7.36488 4.45081 7.27781 4.26261C7.14981 3.97961 7.23481 3.61261 7.40481 2.87661L7.48781 2.51661Z" stroke="url(#paint2_linear_76_1173)" stroke-width="1.5" stroke-linecap="round" stroke-linejoin="round"/>
<defs>
<linearGradient id="paint0_linear_76_1173" x1="6.47799" y1="6.53167" x2="13.4543" y2="6.6156" gradientUnits="userSpaceOnUse">
<stop stop-color="white" stop-opacity="0.4"/>
<stop offset="1" stop-color="white"/>
</linearGradient>
<linearGradient id="paint1_linear_76_1173" x1="1.85252" y1="-2.40721" x2="18.7946" y2="-2.1872" gradientUnits="userSpaceOnUse">
<stop stop-color="white" stop-opacity="0.4"/>
<stop offset="1" stop-color="white"/>
</linearGradient>
<linearGradient id="paint2_linear_76_1173" x1="7.40331" y1="-0.291857" x2="12.3851" y2="-0.206248" gradientUnits="userSpaceOnUse">
<stop stop-color="white" stop-opacity="0.4"/>
<stop offset="1" stop-color="white"/>
</linearGradient>
</defs>
</svg>
