<svg width="60" height="60" viewBox="0 0 60 60" fill="none" xmlns="http://www.w3.org/2000/svg">
<path fill-rule="evenodd" clip-rule="evenodd" d="M20.43 39.5726C30.0425 49.1851 38.95 50.2376 41.565 50.3351C44.725 50.4501 47.95 47.87 49.345 45.2276C47.12 42.6175 44.2225 40.5926 41.05 38.3976C39.1775 40.2676 36.87 43.7426 33.7975 42.4976C32.05 41.7951 27.735 39.8075 23.965 36.035C20.195 32.2626 18.2075 27.9501 17.5 26.2051C16.255 23.1276 19.74 20.8151 21.6125 18.9426C19.4175 15.7176 17.4275 12.745 14.8225 10.6326C12.1425 12.0325 9.5475 15.2326 9.665 18.4351C9.7625 21.0501 10.815 29.9576 20.43 39.5726ZM41.38 55.3326C37.78 55.2001 27.5775 53.7901 16.8925 43.1076C6.21 32.4226 4.8025 22.2225 4.6675 18.6201C4.4675 13.1301 8.6725 7.79755 13.53 5.71505C14.1149 5.46247 14.7555 5.3663 15.3888 5.43599C16.0221 5.50568 16.6265 5.73882 17.1425 6.11255C21.1625 9.04505 23.935 13.4876 26.3175 16.9676C26.8131 17.6912 27.0402 18.5653 26.9594 19.4387C26.8786 20.312 26.495 21.1296 25.875 21.75L22.485 25.1426C23.2725 26.8801 24.875 29.8751 27.5 32.5C30.125 35.125 33.12 36.7275 34.86 37.515L38.2475 34.125C38.8695 33.5024 39.6907 33.1185 40.5673 33.0403C41.444 32.9622 42.3201 33.1948 43.0425 33.6976C46.5925 36.1576 50.7625 38.8901 53.8025 42.7826C54.2066 43.3023 54.4636 43.9211 54.5467 44.5742C54.6298 45.2272 54.536 45.8906 54.275 46.495C52.1825 51.3775 46.8875 55.535 41.38 55.3326Z" fill="white" fill-opacity="0.8"/>
</svg>
