<svg width="20" height="27" viewBox="0 0 20 27" fill="none" xmlns="http://www.w3.org/2000/svg">
<path d="M8.5 5.90625H6.8125V1.6875C6.8125 1.46372 6.90139 1.24911 7.05963 1.09088C7.21786 0.932645 7.43247 0.84375 7.65625 0.84375C7.88003 0.84375 8.09464 0.932645 8.25287 1.09088C8.41111 1.24911 8.5 1.46372 8.5 1.6875V5.90625ZM15.25 13.038V7.59375C15.25 7.1462 15.0722 6.71697 14.7557 6.40051C14.4393 6.08404 14.0101 5.90625 13.5625 5.90625H8.5V12.3071L10.4343 10.3718C10.5127 10.2934 10.6058 10.2312 10.7082 10.1888C10.8106 10.1464 10.9204 10.1245 11.0312 10.1245C11.1421 10.1245 11.2519 10.1464 11.3543 10.1888C11.4567 10.2312 11.5498 10.2934 11.6282 10.3718C11.7066 10.4502 11.7688 10.5433 11.8112 10.6457C11.8536 10.7481 11.8755 10.8579 11.8755 10.9688C11.8755 11.0796 11.8536 11.1894 11.8112 11.2918C11.7688 11.3942 11.7066 11.4873 11.6282 11.5657L8.2532 14.9407C8.17484 15.0192 8.08179 15.0814 7.97936 15.1238C7.87693 15.1663 7.76713 15.1882 7.65625 15.1882C7.54537 15.1882 7.43557 15.1663 7.33314 15.1238C7.23071 15.0814 7.13766 15.0192 7.0593 14.9407L3.6843 11.5657C3.52597 11.4074 3.43703 11.1927 3.43703 10.9688C3.43703 10.7448 3.52597 10.5301 3.6843 10.3718C3.84262 10.2135 4.05735 10.1245 4.28125 10.1245C4.50515 10.1245 4.71988 10.2135 4.8782 10.3718L6.8125 12.3071V5.90625H1.75C1.30245 5.90625 0.873225 6.08404 0.556757 6.40051C0.24029 6.71697 0.0625 7.1462 0.0625 7.59375V21.0938C0.0625 21.3175 0.151395 21.5321 0.309629 21.6904C0.467863 21.8486 0.682474 21.9375 0.90625 21.9375H8.78477C8.81852 22.0082 8.85543 22.0788 8.89551 22.1484L8.92082 22.1885L11.2686 25.7745C11.3911 25.9617 11.583 26.0927 11.802 26.1384C12.0211 26.1842 12.2493 26.1411 12.4366 26.0186C12.6239 25.8961 12.7548 25.7042 12.8006 25.4851C12.8464 25.2661 12.8033 25.0378 12.6808 24.8505L10.3468 21.2868C10.1813 20.9946 10.1387 20.6487 10.2283 20.3251C10.3179 20.0015 10.5324 19.7267 10.8245 19.5613C11.1167 19.3958 11.4626 19.3532 11.7862 19.4428C12.1098 19.5324 12.3845 19.7469 12.55 20.0391C12.5574 20.0528 12.5658 20.0665 12.5743 20.0791L13.7007 21.7993C13.8002 21.9512 13.9461 22.0669 14.1167 22.1292C14.2872 22.1915 14.4733 22.1971 14.6473 22.1452C14.8213 22.0934 14.974 21.9867 15.0825 21.8412C15.1911 21.6956 15.2498 21.519 15.25 21.3374V15.1875C16.0453 15.9237 16.6805 16.8157 17.1159 17.8081C17.5514 18.8005 17.7779 19.8719 17.7812 20.9556V25.3125C17.7812 25.5363 17.8701 25.7509 18.0284 25.9091C18.1866 26.0674 18.4012 26.1562 18.625 26.1562C18.8488 26.1562 19.0634 26.0674 19.2216 25.9091C19.3799 25.7509 19.4688 25.5363 19.4688 25.3125V20.9514C19.464 19.3884 19.0771 17.8502 18.3418 16.471C17.6065 15.0917 16.545 13.9132 15.25 13.038Z" fill="white" fill-opacity="0.45"/>
</svg>
