<svg width="26" height="26" viewBox="0 0 26 26" fill="none" xmlns="http://www.w3.org/2000/svg">
<path opacity="0.2" d="M13 26C20.1797 26 26 20.1797 26 13C26 5.8203 20.1797 0 13 0C5.8203 0 0 5.8203 0 13C0 20.1797 5.8203 26 13 26Z" fill="white"/>
<path fill-rule="evenodd" clip-rule="evenodd" d="M13.1589 5.25108C12.8897 5.20165 12.6182 5.42056 12.6135 5.70066C12.6034 6.13874 12.6055 6.57719 12.6076 7.01564C12.6098 7.48028 12.612 7.94492 12.5996 8.40916C12.2309 8.40445 11.8622 8.40366 11.4926 8.40759C11.4856 8.22219 11.4864 8.03662 11.4873 7.85104C11.4883 7.63137 11.4893 7.41168 11.4772 7.19222C11.4687 6.9686 11.3006 6.74263 11.0745 6.71596C10.793 6.65554 10.4836 6.8972 10.4882 7.19379C10.4815 7.39611 10.4824 7.59862 10.4834 7.80113C10.4843 8.01328 10.4853 8.22545 10.4774 8.4374L10.4774 8.43741C10.3494 8.46487 10.2213 8.49233 10.0933 8.52057C10.1326 8.53156 10.172 8.54254 10.2113 8.55274C9.89877 8.5556 9.63802 8.74706 9.39298 8.92699C9.36887 8.94469 9.34491 8.96228 9.32108 8.97957C8.85745 9.39934 8.51956 9.99408 8.48639 10.6328C7.94082 10.6506 7.39472 10.6476 6.84855 10.6447C6.45642 10.6426 6.06425 10.6405 5.67222 10.6461C5.38602 10.6296 5.13222 10.9034 5.17696 11.1945C5.16693 11.455 5.42613 11.6543 5.66759 11.6433C6.00673 11.6425 6.34588 11.6433 6.68502 11.6441C7.27854 11.6455 7.87205 11.6469 8.46556 11.6394C8.46803 11.9502 8.46852 12.2605 8.46902 12.571C8.46914 12.6486 8.46926 12.7262 8.46942 12.8038C8.29421 12.8131 8.1184 12.8093 7.9427 12.8054C7.67513 12.7995 7.40782 12.7937 7.14333 12.8344C6.74219 12.9827 6.74296 13.637 7.1495 13.7759C7.40137 13.8227 7.65764 13.8174 7.91411 13.8121C8.10067 13.8083 8.28734 13.8045 8.4725 13.8206C8.47204 13.8523 8.47156 13.884 8.47108 13.9157C8.46596 14.2536 8.46084 14.5914 8.47636 14.9293C8.0684 14.9516 7.65992 14.948 7.25137 14.9445C6.95536 14.9419 6.65932 14.9393 6.36342 14.9466C6.1559 14.9576 5.90133 15.0486 5.8427 15.2761C5.71079 15.5813 5.94993 15.9689 6.2801 15.9666C7.0091 15.976 7.73888 15.9721 8.46788 15.9666C8.53499 16.5244 8.76565 17.0658 9.15676 17.4668C9.46919 17.7696 9.85799 18.0638 10.3039 18.0835L10.0755 18.1376C10.2098 18.1352 10.344 18.1454 10.4782 18.1627C10.4847 18.2865 10.4835 18.4107 10.4823 18.535C10.4805 18.7193 10.4786 18.9037 10.5021 19.087C10.5785 19.4346 11.0375 19.5946 11.3006 19.3522C11.5191 19.1506 11.5034 18.8601 11.4879 18.5751C11.4811 18.4487 11.4743 18.3234 11.488 18.2074C11.8598 18.2051 12.2309 18.2043 12.602 18.2066C12.6101 18.5817 12.6088 18.9569 12.6075 19.3321C12.6061 19.7356 12.6047 20.1391 12.6151 20.5424C12.6135 20.8155 12.9013 21.0446 13.1605 21.0014C13.3942 20.9944 13.5971 20.7716 13.5894 20.5346C13.6026 20.0262 13.6004 19.5175 13.5983 19.0088C13.5972 18.7435 13.596 18.4782 13.5971 18.2129C13.8729 18.2026 14.1488 18.2036 14.4246 18.2046C14.5268 18.2049 14.6289 18.2053 14.7311 18.2051C14.7322 18.3893 14.7314 18.5737 14.7305 18.7582C14.7296 18.9595 14.7287 19.1609 14.7303 19.3624C14.7134 19.5986 14.8746 19.8261 15.0983 19.8896C15.312 19.9501 15.4956 19.823 15.6553 19.6958C15.7394 19.3809 15.7299 19.0555 15.7204 18.7302C15.7151 18.5483 15.7098 18.3664 15.7208 18.1862C16.0726 18.0952 16.4267 17.976 16.7198 17.7516C17.3077 17.3491 17.6548 16.6617 17.7466 15.9579C18.4304 15.976 19.1149 15.9735 19.7991 15.971C20.184 15.9696 20.5688 15.9682 20.9534 15.9705C21.2782 16.0113 21.6022 15.6967 21.5158 15.3593C21.4711 15.0925 21.1972 14.9379 20.9488 14.9458C20.5801 14.9461 20.2115 14.9454 19.8429 14.9447C19.1426 14.9435 18.4425 14.9422 17.742 14.9474C17.7425 14.6969 17.7423 14.4464 17.7422 14.1956C17.7421 14.0702 17.742 13.9447 17.742 13.8191C17.9307 13.8091 18.1197 13.8106 18.3085 13.8121C18.5203 13.8138 18.7319 13.8155 18.9431 13.801C19.19 13.8002 19.3543 13.5468 19.3766 13.3193C19.379 13.0651 19.1707 12.8038 18.9068 12.8108C18.6783 12.8025 18.4497 12.804 18.2213 12.8055C18.0627 12.8066 17.9042 12.8076 17.7458 12.8054C17.7404 12.4185 17.7412 12.0325 17.7435 11.6465C18.1239 11.6438 18.5043 11.6439 18.8845 11.644C19.2902 11.6441 19.6957 11.6442 20.101 11.641C20.3818 11.6747 20.6526 11.4017 20.6109 11.1145C20.6272 10.9314 20.4904 10.811 20.3664 10.7018C20.3496 10.687 20.333 10.6724 20.317 10.6579C19.8205 10.6397 19.3237 10.642 18.8269 10.6443C18.4637 10.646 18.1005 10.6477 17.7374 10.6414C17.6448 9.5492 16.7762 8.61237 15.7178 8.43113C15.7175 8.3091 15.7184 8.187 15.7192 8.06487C15.7213 7.77475 15.7233 7.48446 15.7108 7.19457C15.7262 6.81403 15.2186 6.5708 14.9301 6.8054C14.7812 6.90583 14.7319 7.0965 14.7319 7.26833C14.7296 7.42749 14.7302 7.58665 14.7308 7.74582C14.7316 7.96562 14.7324 8.18543 14.7257 8.40523C14.3508 8.40759 13.9751 8.40759 13.6002 8.40523C13.5958 8.01526 13.5971 7.625 13.5985 7.23469C13.6002 6.72427 13.6019 6.21379 13.5909 5.7038C13.5948 5.46842 13.3958 5.24402 13.1589 5.25108ZM9.26399 10.8093C9.27479 10.1416 9.72839 9.5288 10.3401 9.30126C10.5335 9.21845 10.7468 9.21647 10.9541 9.21454C10.9667 9.21443 10.9794 9.21431 10.992 9.21417C11.8146 9.21507 12.6372 9.21494 13.4596 9.21481C14.0764 9.21472 14.6931 9.21462 15.3097 9.21496C16.0148 9.19299 16.6975 9.70926 16.8818 10.4013C16.9574 10.6498 16.9525 10.9099 16.9476 11.167C16.947 11.2014 16.9463 11.2357 16.9459 11.2699C16.9504 12.3885 16.9491 13.5071 16.9478 14.6257C16.9473 15.0253 16.9469 15.4249 16.9466 15.8246C16.9335 16.6814 16.1582 17.4228 15.3197 17.4008C14.7863 17.4003 14.2531 17.4007 13.7198 17.4012C12.7599 17.402 11.8001 17.4028 10.84 17.3977C10.3602 17.3985 9.90042 17.1458 9.60882 16.763C9.33959 16.4444 9.24856 16.0074 9.25859 15.5962C9.26141 14.8677 9.26085 14.1391 9.26029 13.4106C9.25962 12.5433 9.25896 11.6762 9.26399 10.8093Z" fill="white"/>
<path fill-rule="evenodd" clip-rule="evenodd" d="M11.8309 10.3936C11.6025 10.3974 11.3669 10.4014 11.1524 10.4884C10.9395 10.621 10.8122 10.8658 10.8261 11.1208C10.8134 11.9183 10.8164 12.7158 10.8194 13.5133C10.8199 13.6314 10.8203 13.7496 10.8207 13.8677C10.8161 14.1384 10.9033 14.435 11.1548 14.5676C11.4469 14.6993 11.7588 14.6755 12.071 14.6517C12.2517 14.6379 12.4326 14.6242 12.6097 14.6406C12.8896 14.6719 13.1701 14.6654 13.4507 14.6588C13.7176 14.6526 13.9846 14.6463 14.2513 14.6727C14.2497 14.7936 14.2497 14.9144 14.2497 15.036C13.7628 15.0468 13.2756 15.0447 12.7886 15.0426C12.2872 15.0404 11.786 15.0382 11.2851 15.0501C11.212 15.2838 11.1363 15.5163 11.0606 15.7487C11.0118 15.8987 10.9629 16.0486 10.9148 16.1988C11.7833 16.1948 12.6521 16.1954 13.5207 16.196C13.8365 16.1962 14.1523 16.1964 14.468 16.1964C14.502 16.1953 14.5362 16.1946 14.5704 16.1939C14.7164 16.191 14.8636 16.188 15.0042 16.1454C15.2348 16.0356 15.3914 15.7798 15.3837 15.5201C15.3862 14.8974 15.3861 14.2749 15.386 13.6525C15.3858 12.9134 15.3857 12.1744 15.3899 11.4354C15.3898 11.425 15.3898 11.4146 15.3897 11.4042C15.3884 11.2079 15.387 11.0087 15.3328 10.8187C15.2318 10.5252 14.9031 10.3981 14.6208 10.3942C14.3887 10.3942 14.1567 10.3943 13.9248 10.3943C13.2291 10.3945 12.5337 10.3946 11.8382 10.3934L11.8309 10.3936ZM12.8527 13.4956C12.5579 13.4968 12.2632 13.4981 11.9686 13.495C11.9715 13.1963 11.97 12.8974 11.9686 12.5985C11.9669 12.2537 11.9652 11.9088 11.9702 11.5641C12.7308 11.5711 13.4914 11.5727 14.2513 11.5609C14.2458 11.8051 14.2491 12.0496 14.2524 12.2941C14.258 12.6986 14.2635 13.1031 14.2289 13.506C13.7701 13.4917 13.3113 13.4936 12.8527 13.4956Z" fill="white"/>
</svg>
