<svg width="25" height="24" viewBox="0 0 25 24" fill="none" xmlns="http://www.w3.org/2000/svg">
<path d="M19.7 20C17.8987 20 16.0927 19.5853 14.282 18.756C12.4713 17.9267 10.803 16.749 9.277 15.223C7.76367 13.697 6.58933 12.0233 5.754 10.202C4.918 8.38 4.5 6.57933 4.5 4.8V4H8.939L9.787 8.083L7.091 10.593C7.547 11.3837 8.01933 12.106 8.508 12.76C8.99667 13.414 9.50567 14.0037 10.035 14.529C10.5697 15.089 11.1723 15.6123 11.843 16.099C12.5137 16.5857 13.279 17.0657 14.139 17.539L16.75 14.831L20.5 15.587V20H19.7Z" fill="#A39D9D"/>
</svg>
