<svg width="16" height="17" viewBox="0 0 16 17" fill="none" xmlns="http://www.w3.org/2000/svg">
<path d="M9.71562 2.34625C9.71562 1.40125 8.945 0.625 7.99437 0.625C7.04375 0.625 6.2675 1.40125 6.27312 2.34625V6.77312H1.84625C0.90125 6.77312 0.125 7.54375 0.125 8.49437C0.125 9.43937 0.90125 10.2156 1.84625 10.2156H6.27312V14.6369C6.27312 15.5819 7.04375 16.3581 7.99437 16.3581C8.93937 16.3581 9.71562 15.5875 9.71562 14.6369V10.2156H14.1369C15.0819 10.2156 15.8581 9.445 15.8581 8.49437C15.8581 7.54937 15.0875 6.77312 14.1369 6.77312H9.71562V2.34625Z" fill="url(#paint0_linear_300_3143)"/>
<path d="M9.71562 2.34625C9.71562 1.40125 8.945 0.625 7.99437 0.625C7.04375 0.625 6.2675 1.40125 6.27312 2.34625V6.77312H1.84625C0.90125 6.77312 0.125 7.54375 0.125 8.49437C0.125 9.43937 0.90125 10.2156 1.84625 10.2156H6.27312V14.6369C6.27312 15.5819 7.04375 16.3581 7.99437 16.3581C8.93937 16.3581 9.71562 15.5875 9.71562 14.6369V10.2156H14.1369C15.0819 10.2156 15.8581 9.445 15.8581 8.49437C15.8581 7.54937 15.0875 6.77312 14.1369 6.77312H9.71562V2.34625Z" fill="url(#paint1_linear_300_3143)"/>
<path d="M9.71562 2.34625C9.71562 1.40125 8.945 0.625 7.99437 0.625C7.04375 0.625 6.2675 1.40125 6.27312 2.34625V6.77312H1.84625C0.90125 6.77312 0.125 7.54375 0.125 8.49437C0.125 9.43937 0.90125 10.2156 1.84625 10.2156H6.27312V14.6369C6.27312 15.5819 7.04375 16.3581 7.99437 16.3581C8.93937 16.3581 9.71562 15.5875 9.71562 14.6369V10.2156H14.1369C15.0819 10.2156 15.8581 9.445 15.8581 8.49437C15.8581 7.54937 15.0875 6.77312 14.1369 6.77312H9.71562V2.34625Z" fill="url(#paint2_linear_300_3143)"/>
<path d="M9.71562 2.34625C9.71562 1.40125 8.945 0.625 7.99437 0.625C7.04375 0.625 6.2675 1.40125 6.27312 2.34625V6.77312H1.84625C0.90125 6.77312 0.125 7.54375 0.125 8.49437C0.125 9.43937 0.90125 10.2156 1.84625 10.2156H6.27312V14.6369C6.27312 15.5819 7.04375 16.3581 7.99437 16.3581C8.93937 16.3581 9.71562 15.5875 9.71562 14.6369V10.2156H14.1369C15.0819 10.2156 15.8581 9.445 15.8581 8.49437C15.8581 7.54937 15.0875 6.77312 14.1369 6.77312H9.71562V2.34625Z" fill="url(#paint3_radial_300_3143)"/>
<path d="M9.71562 2.34625C9.71562 1.40125 8.945 0.625 7.99437 0.625C7.04375 0.625 6.2675 1.40125 6.27312 2.34625V6.77312H1.84625C0.90125 6.77312 0.125 7.54375 0.125 8.49437C0.125 9.43937 0.90125 10.2156 1.84625 10.2156H6.27312V14.6369C6.27312 15.5819 7.04375 16.3581 7.99437 16.3581C8.93937 16.3581 9.71562 15.5875 9.71562 14.6369V10.2156H14.1369C15.0819 10.2156 15.8581 9.445 15.8581 8.49437C15.8581 7.54937 15.0875 6.77312 14.1369 6.77312H9.71562V2.34625Z" fill="url(#paint4_radial_300_3143)"/>
<path d="M9.71562 2.34625C9.71562 1.40125 8.945 0.625 7.99437 0.625C7.04375 0.625 6.2675 1.40125 6.27312 2.34625V6.77312H1.84625C0.90125 6.77312 0.125 7.54375 0.125 8.49437C0.125 9.43937 0.90125 10.2156 1.84625 10.2156H6.27312V14.6369C6.27312 15.5819 7.04375 16.3581 7.99437 16.3581C8.93937 16.3581 9.71562 15.5875 9.71562 14.6369V10.2156H14.1369C15.0819 10.2156 15.8581 9.445 15.8581 8.49437C15.8581 7.54937 15.0875 6.77312 14.1369 6.77312H9.71562V2.34625Z" fill="url(#paint5_radial_300_3143)"/>
<path d="M9.71562 2.34625C9.71562 1.40125 8.945 0.625 7.99437 0.625C7.04375 0.625 6.2675 1.40125 6.27312 2.34625V6.77312H1.84625C0.90125 6.77312 0.125 7.54375 0.125 8.49437C0.125 9.43937 0.90125 10.2156 1.84625 10.2156H6.27312V14.6369C6.27312 15.5819 7.04375 16.3581 7.99437 16.3581C8.93937 16.3581 9.71562 15.5875 9.71562 14.6369V10.2156H14.1369C15.0819 10.2156 15.8581 9.445 15.8581 8.49437C15.8581 7.54937 15.0875 6.77312 14.1369 6.77312H9.71562V2.34625Z" fill="url(#paint6_radial_300_3143)"/>
<defs>
<linearGradient id="paint0_linear_300_3143" x1="7.99156" y1="0.625" x2="7.99156" y2="15.1223" gradientUnits="userSpaceOnUse">
<stop stop-color="#3F7DF2"/>
<stop offset="1" stop-color="#0F4BBE"/>
</linearGradient>
<linearGradient id="paint1_linear_300_3143" x1="7.99156" y1="6.66175" x2="7.99156" y2="10.4687" gradientUnits="userSpaceOnUse">
<stop stop-color="#3F7DF2"/>
<stop offset="0.214" stop-color="#09C241"/>
<stop offset="0.335" stop-color="white"/>
<stop offset="0.523" stop-color="#09C241" stop-opacity="0.5"/>
<stop offset="0.863" stop-color="#09C241"/>
<stop offset="1" stop-color="#0040BC"/>
</linearGradient>
<linearGradient id="paint2_linear_300_3143" x1="6.3125" y1="4.5625" x2="10.6809" y2="4.5625" gradientUnits="userSpaceOnUse">
<stop stop-color="#09C241" stop-opacity="0"/>
<stop offset="0.352" stop-color="#09C241"/>
<stop offset="0.563" stop-color="#3F7DF2"/>
<stop offset="0.643" stop-color="#09C241" stop-opacity="0.28"/>
<stop offset="0.849" stop-color="#09C241" stop-opacity="0.02"/>
</linearGradient>
<radialGradient id="paint3_radial_300_3143" cx="0" cy="0" r="1" gradientUnits="userSpaceOnUse" gradientTransform="translate(8.17437 15.6944) rotate(90) scale(1.60366 3.00497)">
<stop offset="0.096" stop-color="#09C241"/>
<stop offset="0.846" stop-color="#09C241" stop-opacity="0"/>
</radialGradient>
<radialGradient id="paint4_radial_300_3143" cx="0" cy="0" r="1" gradientUnits="userSpaceOnUse" gradientTransform="translate(0.27125 8.02525) rotate(180) scale(1.83511 2.59309)">
<stop offset="0.11" stop-color="white"/>
<stop offset="1" stop-color="#09C241" stop-opacity="0"/>
</radialGradient>
<radialGradient id="paint5_radial_300_3143" cx="0" cy="0" r="1" gradientUnits="userSpaceOnUse" gradientTransform="translate(8.67162 1.64762) rotate(-57.8297) scale(1.11319 1.50022)">
<stop offset="0.177" stop-color="#0040BC"/>
<stop offset="1" stop-color="#09C241" stop-opacity="0"/>
</radialGradient>
<radialGradient id="paint6_radial_300_3143" cx="0" cy="0" r="1" gradientUnits="userSpaceOnUse" gradientTransform="translate(9.61662 7.1725) rotate(-53.1301) scale(1.37368 0.989509)">
<stop offset="0.177" stop-color="#3F7DF2"/>
<stop offset="1" stop-color="#3F7DF2" stop-opacity="0"/>
</radialGradient>
</defs>
</svg>
