<svg width="24" height="25" viewBox="0 0 24 25" fill="none" xmlns="http://www.w3.org/2000/svg">
<path d="M9.04 22.04C10 22.33 10.97 22.5 12 22.5C14.6522 22.5 17.1957 21.4464 19.0711 19.5711C20.9464 17.6957 22 15.1522 22 12.5C22 11.1868 21.7413 9.88642 21.2388 8.67317C20.7362 7.45991 19.9997 6.35752 19.0711 5.42893C18.1425 4.50035 17.0401 3.76375 15.8268 3.2612C14.6136 2.75866 13.3132 2.5 12 2.5C10.6868 2.5 9.38642 2.75866 8.17317 3.2612C6.95991 3.76375 5.85752 4.50035 4.92893 5.42893C3.05357 7.3043 2 9.84784 2 12.5C2 16.75 4.67 20.4 8.44 21.84C8.35 21.06 8.26 19.77 8.44 18.88L9.59 13.94C9.59 13.94 9.3 13.36 9.3 12.44C9.3 11.06 10.16 10.03 11.14 10.03C12 10.03 12.4 10.66 12.4 11.47C12.4 12.33 11.83 13.56 11.54 14.74C11.37 15.72 12.06 16.58 13.06 16.58C14.84 16.58 16.22 14.68 16.22 12C16.22 9.6 14.5 7.96 12.03 7.96C9.21 7.96 7.55 10.06 7.55 12.27C7.55 13.13 7.83 14 8.29 14.57C8.38 14.63 8.38 14.71 8.35 14.86L8.06 15.95C8.06 16.12 7.95 16.18 7.78 16.06C6.5 15.5 5.76 13.68 5.76 12.21C5.76 9.05 8 6.18 12.32 6.18C15.76 6.18 18.44 8.65 18.44 11.93C18.44 15.37 16.31 18.13 13.26 18.13C12.29 18.13 11.34 17.61 11 17L10.33 19.37C10.1 20.23 9.47 21.38 9.04 22.07V22.04Z" fill="white"/>
</svg>
