<svg width="21" height="18" viewBox="0 0 21 18" fill="none" xmlns="http://www.w3.org/2000/svg">
<path d="M10.345 16.5799C10.6574 16.2673 10.833 15.8435 10.833 15.4016C10.833 14.9596 10.6574 14.5358 10.345 14.2232L6.52331 10.4016L19.1666 10.4016C19.6087 10.4016 20.0326 10.226 20.3452 9.9134C20.6577 9.60084 20.8333 9.17692 20.8333 8.73489C20.8333 8.29287 20.6577 7.86894 20.3452 7.55638C20.0326 7.24382 19.6087 7.06823 19.1666 7.06823L6.52331 7.06823L10.345 3.24656C10.6575 2.93405 10.8331 2.51019 10.8331 2.06823C10.8331 1.62627 10.6575 1.20241 10.345 0.889893C10.0325 0.57738 9.60861 0.401813 9.16665 0.401813C8.72468 0.401813 8.30083 0.57738 7.98831 0.889894L0.143314 8.7349L7.98831 16.5799C8.30086 16.8923 8.72471 17.0679 9.16665 17.0679C9.60859 17.0679 10.0324 16.8923 10.345 16.5799Z" fill="white"/>
</svg>
