<svg width="21" height="18" viewBox="0 0 21 18" fill="none" xmlns="http://www.w3.org/2000/svg">
<path d="M10.655 0.889833C10.3426 1.20238 10.167 1.62623 10.167 2.06817C10.167 2.51011 10.3426 2.93395 10.655 3.2465L14.4767 7.06817H1.83334C1.39131 7.06817 0.967388 7.24376 0.654827 7.55632C0.342267 7.86888 0.166672 8.29281 0.166672 8.73483C0.166672 9.17686 0.342267 9.60078 0.654827 9.91334C0.967388 10.2259 1.39131 10.4015 1.83334 10.4015H14.4767L10.655 14.2232C10.3425 14.5357 10.1669 14.9595 10.1669 15.4015C10.1669 15.8435 10.3425 16.2673 10.655 16.5798C10.9675 16.8923 11.3914 17.0679 11.8333 17.0679C12.2753 17.0679 12.6992 16.8923 13.0117 16.5798L20.8567 8.73483L13.0117 0.889833C12.6991 0.577381 12.2753 0.401855 11.8333 0.401855C11.3914 0.401855 10.9676 0.577381 10.655 0.889833Z" fill="white"/>
</svg>
